<?xml version="1.0" encoding="utf-8"?>
<!-- Generator: Adobe Illustrator 25.3.1, SVG Export Plug-In . SVG Version: 6.00 Build 0)  -->
<svg version="1.1" id="Layer_1" xmlns="http://www.w3.org/2000/svg" xmlns:xlink="http://www.w3.org/1999/xlink" x="0px" y="0px"
	 viewBox="0 0 361.1 48.1" style="enable-background:new 0 0 361.1 48.1;" xml:space="preserve">
<style type="text/css">
	.st0{fill:#FF5A00;}
	.st1{enable-background:new    ;}
</style>
<g>
	<path class="st0" d="M130.9,36.8c4.1,0,7.9-1.8,10.4-5.1c1.7-2.3,2.5-5.2,2.5-8s-0.8-5.7-2.5-8c-2.4-3.3-6.3-5.1-10.4-5.1
		c-4.1,0-7.9,1.8-10.4,5.1c-1.7,2.3-2.5,5.2-2.5,8s0.8,5.7,2.5,8C122.9,35.1,126.8,36.8,130.9,36.8 M124.6,20.7
		c0.9-2.8,3.2-5.1,6.3-5.1c3.1,0,5.3,2.3,6.3,5.1c0.3,0.9,0.5,2,0.5,3s-0.2,2.1-0.5,3c-0.9,2.8-3.2,5.1-6.3,5.1
		c-3.1,0-5.3-2.3-6.3-5.1c-0.3-0.9-0.5-2-0.5-3C124.1,22.7,124.3,21.6,124.6,20.7"/>
	<path class="st0" d="M37.6,36.9h4.3c0.4,0,0.7-0.3,0.7-0.7V0.7c0-0.4-0.3-0.7-0.7-0.7h-4.3c-0.4,0-0.7,0.3-0.7,0.7v35.4
		C36.9,36.6,37.2,36.9,37.6,36.9"/>
	<path class="st0" d="M27.5,36.9h4.3c0.4,0,0.7-0.3,0.7-0.7V0.7c0-0.4-0.3-0.7-0.7-0.7h-4.3c-0.4,0-0.7,0.3-0.7,0.7v35.4
		C26.7,36.6,27.1,36.9,27.5,36.9"/>
	<path class="st0" d="M103.1,36.9h4.3c0.4,0,0.7-0.3,0.7-0.7V21.7c0-4.5,3-6.7,7.9-5.7c0.6,0.1,1-0.2,1-0.9v-3
		c0-0.8-0.1-1.1-0.6-1.2l0,0c-0.8-0.2-2.5-0.3-3-0.3c-3.1,0-6,1.3-7.9,3.2c-1.4,1.4-3.2,3.6-3.2,7.5v14.8
		C102.4,36.6,102.7,36.9,103.1,36.9"/>
	<path class="st0" d="M85.8,36.8c2.7,0,5.2-0.8,7.4-2.2v3.2c0,4.3-3.8,5.1-6.2,5.2c-1.6,0.1-3.9-0.1-4.9-0.3c-0.7-0.1-1.1,0-1.1,0.7
		v3.8c0,0.3,0.2,0.6,0.7,0.6c5.6,0.5,9.3,0.4,12.2-1.2c2-1.1,3.4-3,4.1-5.2c0.5-1.6,0.7-3.5,0.7-5.2V23.7c0-2.9-0.8-5.7-2.5-8
		c-2.4-3.3-6.3-5.1-10.4-5.1s-7.9,1.8-10.4,5.1c-3.3,4.5-3.3,11.5,0,16C77.8,35.1,81.7,36.8,85.8,36.8 M79.5,20.7
		c0.9-2.8,3.2-5.1,6.3-5.1c6.9,0,7.2,7.1,7.2,8.1s-0.2,8.1-7.2,8.1c-3.1,0-5.3-2.3-6.3-5.1c-0.3-0.9-0.5-2-0.5-3
		S79.2,21.6,79.5,20.7"/>
	<path class="st0" d="M58.8,36.8c4.1,0.2,6.9-0.6,9-1.8c0.4-0.2,0.5-0.5,0.5-1.3v-3.3c0-0.7-0.4-1-1-0.6c-2.2,1.4-4.9,2.3-8.3,2
		c-3.4-0.3-6.3-2.7-6.6-6.1h17c0.4,0,0.7-0.3,0.7-0.7c0.3-4.7-1.1-14.5-11.5-14.5c-7.7,0-11,5.1-12.1,9.5c-0.3,1.2-0.4,2.4-0.4,3.6
		c0,2.8,0.8,5.7,2.5,8C50.9,35.1,54.8,36.7,58.8,36.8 M58.5,15.7c2.5,0,5.5,1.4,5.5,5.5H52.4C52.4,19.3,54,15.7,58.5,15.7"/>
	<path class="st0" d="M2.7,35c1.6,1.3,3.9,1.9,6.7,1.9h2h10.7c0.4,0,0.7-0.3,0.7-0.7v-7.3v-7.7c0-3.4-0.8-6.1-2.4-7.8
		c-1.7-1.8-5-2.7-8-2.7S6.2,11.5,3.6,13c-0.2,0.1-0.3,0.3-0.3,0.5l0,0l0.2,3.8c0,0.5,0.6,0.7,1.1,0.4c3.8-2.3,8.3-2.8,10.6-1.6
		c1.6,0.8,2,2.5,2,3.6v0.6H11c-2.7,0-11,1-11,8.6l0,0l0,0l0,0C0,31.5,0.9,33.6,2.7,35 M11.3,24.8h5.9v4v3.4h-5.8H9.7
		c-1-0.1-1.9-0.3-2.7-0.9c-0.9-0.7-1.2-1.4-1.3-2.5l0,0C5.8,27.5,6.8,24.8,11.3,24.8"/>
</g>
<g class="st1">
	<path d="M172.4,36.1L163,12.8h-0.1c0.1,1.4,0.1,2.9,0.1,4.4v18.9h-1.7V10.8h2.7l9,22.2h0.1l9-22.2h2.7v25.3h-1.8V16.9
		c0-1.3,0.1-2.7,0.2-4.1H183l-9.5,23.3H172.4z"/>
	<path d="M191.8,36.1V10.8h1.8v23.6h12.1v1.7H191.8z"/>
	<path d="M221,25.1v11h-1.8V10.8h6c3.1,0,5.5,0.6,7,1.7c1.5,1.2,2.2,2.9,2.2,5.2c0,1.7-0.4,3.1-1.3,4.3s-2.2,2-4.1,2.5l6.9,11.5
		h-2.1l-6.5-11H221z M221,23.6h4.8c2.1,0,3.8-0.5,5-1.4c1.2-1,1.8-2.4,1.8-4.2c0-1.9-0.6-3.3-1.7-4.2s-3-1.3-5.6-1.3H221V23.6z"/>
	<path d="M247.4,36.4c-2.7,0-4.9-0.8-6.4-2.5c-1.5-1.7-2.3-4-2.3-7.1c0-3,0.7-5.4,2.2-7.2c1.5-1.8,3.5-2.7,6-2.7
		c2.2,0,4,0.8,5.2,2.3c1.3,1.5,1.9,3.6,1.9,6.3v1.4h-13.5c0,2.6,0.6,4.6,1.8,5.9c1.2,1.4,2.9,2,5.1,2c1.1,0,2-0.1,2.8-0.2
		c0.8-0.2,1.8-0.5,3.1-1v1.6c-1.1,0.5-2,0.8-2.9,0.9C249.5,36.4,248.5,36.4,247.4,36.4z M246.9,18.5c-1.8,0-3.3,0.6-4.4,1.8
		c-1.1,1.2-1.7,2.9-1.9,5.2h11.6c0-2.2-0.5-3.9-1.4-5.1S248.6,18.5,246.9,18.5z"/>
	<path d="M270.9,31.2c0,1.7-0.6,3-1.9,3.9c-1.3,0.9-3.1,1.4-5.4,1.4c-2.5,0-4.5-0.4-6-1.2v-1.8c1.9,0.9,3.9,1.4,6,1.4
		c1.9,0,3.3-0.3,4.2-0.9c1-0.6,1.4-1.4,1.4-2.5c0-0.9-0.4-1.7-1.2-2.4c-0.8-0.6-2-1.3-3.8-1.9c-1.9-0.7-3.2-1.3-4-1.8
		c-0.8-0.5-1.3-1-1.7-1.7c-0.4-0.6-0.6-1.4-0.6-2.3c0-1.4,0.6-2.5,1.8-3.3c1.2-0.8,2.8-1.2,5-1.2c2,0,4,0.4,5.8,1.1l-0.6,1.6
		c-1.8-0.8-3.6-1.1-5.1-1.1c-1.5,0-2.7,0.3-3.6,0.8s-1.3,1.2-1.3,2.1c0,1,0.3,1.8,1,2.4s2.1,1.2,4.1,2c1.7,0.6,2.9,1.2,3.7,1.7
		c0.8,0.5,1.4,1,1.7,1.7C270.7,29.6,270.9,30.4,270.9,31.2z"/>
	<path d="M283.3,36.4c-2.7,0-4.9-0.8-6.4-2.5c-1.5-1.7-2.3-4-2.3-7.1c0-3,0.7-5.4,2.2-7.2c1.5-1.8,3.5-2.7,6-2.7
		c2.2,0,4,0.8,5.2,2.3c1.3,1.5,1.9,3.6,1.9,6.3v1.4h-13.5c0,2.6,0.6,4.6,1.8,5.9c1.2,1.4,2.9,2,5.1,2c1.1,0,2-0.1,2.8-0.2
		c0.8-0.2,1.8-0.5,3.1-1v1.6c-1.1,0.5-2,0.8-2.9,0.9C285.4,36.4,284.4,36.4,283.3,36.4z M282.8,18.5c-1.8,0-3.3,0.6-4.4,1.8
		c-1.1,1.2-1.7,2.9-1.9,5.2h11.6c0-2.2-0.5-3.9-1.4-5.1S284.5,18.5,282.8,18.5z"/>
	<path d="M306.6,36.1l-0.4-3H306c-0.9,1.2-1.9,2.1-2.9,2.6c-1,0.5-2.2,0.8-3.5,0.8c-1.8,0-3.3-0.5-4.3-1.4c-1-0.9-1.5-2.3-1.5-3.9
		c0-1.8,0.8-3.3,2.3-4.3c1.5-1,3.7-1.5,6.6-1.6l3.6-0.1v-1.2c0-1.8-0.4-3.1-1.1-4c-0.7-0.9-1.9-1.4-3.5-1.4c-1.7,0-3.5,0.5-5.4,1.5
		l-0.6-1.5c2.1-1,4.1-1.5,6.1-1.5c2.1,0,3.6,0.5,4.6,1.6c1,1.1,1.5,2.7,1.5,5v12.5H306.6z M299.6,34.9c2,0,3.6-0.6,4.7-1.7
		c1.2-1.1,1.7-2.7,1.7-4.8v-1.9l-3.3,0.1c-2.6,0.1-4.5,0.5-5.6,1.2c-1.1,0.7-1.7,1.8-1.7,3.3c0,1.2,0.4,2.1,1.1,2.7
		S298.3,34.9,299.6,34.9z"/>
	<path d="M321.3,16.9c0.8,0,1.6,0.1,2.6,0.2l-0.3,1.6c-0.8-0.2-1.6-0.3-2.4-0.3c-1.6,0-2.9,0.7-3.9,2c-1,1.4-1.5,3.1-1.5,5.2v10.4
		h-1.7V17.3h1.5l0.2,3.4h0.1c0.8-1.4,1.6-2.4,2.5-2.9C319,17.2,320.1,16.9,321.3,16.9z"/>
	<path d="M335.2,36.4c-2.7,0-4.8-0.8-6.3-2.5c-1.5-1.7-2.3-4.1-2.3-7.1c0-3.1,0.8-5.5,2.4-7.3c1.6-1.7,3.7-2.6,6.5-2.6
		c1.6,0,3.2,0.3,4.7,0.8l-0.5,1.5c-1.6-0.5-3-0.8-4.2-0.8c-2.3,0-4.1,0.7-5.2,2.1c-1.2,1.4-1.8,3.5-1.8,6.1c0,2.5,0.6,4.5,1.8,6
		c1.2,1.4,2.8,2.2,5,2.2c1.7,0,3.3-0.3,4.8-0.9v1.6C338.7,36.1,337.1,36.4,335.2,36.4z"/>
	<path d="M357.6,36.1V23.9c0-1.9-0.4-3.3-1.2-4.1c-0.8-0.9-2-1.3-3.7-1.3c-2.2,0-3.9,0.6-4.9,1.7c-1,1.1-1.6,3-1.6,5.5v10.4h-1.7
		V9.2h1.7v8.6l-0.1,2.4h0.1c0.7-1.1,1.6-1.9,2.7-2.5c1.1-0.5,2.4-0.8,4-0.8c4.3,0,6.4,2.3,6.4,6.9v12.3H357.6z"/>
</g>
</svg>
