<?xml version="1.0" encoding="utf-8"?>
<!-- Generator: Adobe Illustrator 23.1.1, SVG Export Plug-In . SVG Version: 6.00 Build 0)  -->
<svg version="1.1" id="Layer_1" xmlns="http://www.w3.org/2000/svg" xmlns:xlink="http://www.w3.org/1999/xlink" x="0px" y="0px"
	 viewBox="0 0 361.1 48.1" style="enable-background:new 0 0 361.1 48.1;" xml:space="preserve">
<style type="text/css">
	.st0{fill:#FF5A00;}
	.st1{font-family:'OpenSans-Light';}
	.st2{font-size:35.4051px;}
</style>
<g>
	<path class="st0" d="M130.9,36.8c4.1,0,7.9-1.8,10.4-5.1c1.7-2.3,2.5-5.2,2.5-8s-0.8-5.7-2.5-8c-2.4-3.3-6.3-5.1-10.4-5.1
		c-4.1,0-7.9,1.8-10.4,5.1c-1.7,2.3-2.5,5.2-2.5,8s0.8,5.7,2.5,8C122.9,35.1,126.8,36.8,130.9,36.8 M124.6,20.7
		c0.9-2.8,3.2-5.1,6.3-5.1c3.1,0,5.3,2.3,6.3,5.1c0.3,0.9,0.5,2,0.5,3s-0.2,2.1-0.5,3c-0.9,2.8-3.2,5.1-6.3,5.1
		c-3.1,0-5.3-2.3-6.3-5.1c-0.3-0.9-0.5-2-0.5-3C124.1,22.7,124.3,21.6,124.6,20.7"/>
	<path class="st0" d="M37.6,36.9h4.3c0.4,0,0.7-0.3,0.7-0.7V0.7c0-0.4-0.3-0.7-0.7-0.7h-4.3c-0.4,0-0.7,0.3-0.7,0.7v35.4
		C36.9,36.6,37.2,36.9,37.6,36.9"/>
	<path class="st0" d="M27.5,36.9h4.3c0.4,0,0.7-0.3,0.7-0.7V0.7c0-0.4-0.3-0.7-0.7-0.7h-4.3c-0.4,0-0.7,0.3-0.7,0.7v35.4
		C26.7,36.6,27.1,36.9,27.5,36.9"/>
	<path class="st0" d="M103.1,36.9h4.3c0.4,0,0.7-0.3,0.7-0.7V21.7c0-4.5,3-6.7,7.9-5.7c0.6,0.1,1-0.2,1-0.9v-3
		c0-0.8-0.1-1.1-0.6-1.2l0,0c-0.8-0.2-2.5-0.3-3-0.3c-3.1,0-6,1.3-7.9,3.2c-1.4,1.4-3.2,3.6-3.2,7.5v14.8
		C102.4,36.6,102.7,36.9,103.1,36.9"/>
	<path class="st0" d="M85.8,36.8c2.7,0,5.2-0.8,7.4-2.2v3.2c0,4.3-3.8,5.1-6.2,5.2c-1.6,0.1-3.9-0.1-4.9-0.3c-0.7-0.1-1.1,0-1.1,0.7
		v3.8c0,0.3,0.2,0.6,0.7,0.6c5.6,0.5,9.3,0.4,12.2-1.2c2-1.1,3.4-3,4.1-5.2c0.5-1.6,0.7-3.5,0.7-5.2V23.7c0-2.9-0.8-5.7-2.5-8
		c-2.4-3.3-6.3-5.1-10.4-5.1s-7.9,1.8-10.4,5.1c-3.3,4.5-3.3,11.5,0,16C77.8,35.1,81.7,36.8,85.8,36.8 M79.5,20.7
		c0.9-2.8,3.2-5.1,6.3-5.1c6.9,0,7.2,7.1,7.2,8.1s-0.2,8.1-7.2,8.1c-3.1,0-5.3-2.3-6.3-5.1c-0.3-0.9-0.5-2-0.5-3
		S79.2,21.6,79.5,20.7"/>
	<path class="st0" d="M58.8,36.8c4.1,0.2,6.9-0.6,9-1.8c0.4-0.2,0.5-0.5,0.5-1.3v-3.3c0-0.7-0.4-1-1-0.6c-2.2,1.4-4.9,2.3-8.3,2
		c-3.4-0.3-6.3-2.7-6.6-6.1h17c0.4,0,0.7-0.3,0.7-0.7c0.3-4.7-1.1-14.5-11.5-14.5c-7.7,0-11,5.1-12.1,9.5c-0.3,1.2-0.4,2.4-0.4,3.6
		c0,2.8,0.8,5.7,2.5,8C50.9,35.1,54.8,36.7,58.8,36.8 M58.5,15.7c2.5,0,5.5,1.4,5.5,5.5H52.4C52.4,19.3,54,15.7,58.5,15.7"/>
	<path class="st0" d="M2.7,35c1.6,1.3,3.9,1.9,6.7,1.9h2h10.7c0.4,0,0.7-0.3,0.7-0.7v-7.3v-7.7c0-3.4-0.8-6.1-2.4-7.8
		c-1.7-1.8-5-2.7-8-2.7S6.2,11.5,3.6,13c-0.2,0.1-0.3,0.3-0.3,0.5l0,0l0.2,3.8c0,0.5,0.6,0.7,1.1,0.4c3.8-2.3,8.3-2.8,10.6-1.6
		c1.6,0.8,2,2.5,2,3.6v0.6H11c-2.7,0-11,1-11,8.6l0,0l0,0l0,0C0,31.5,0.9,33.6,2.7,35 M11.3,24.8h5.9v4v3.4h-5.8H9.7
		c-1-0.1-1.9-0.3-2.7-0.9c-0.9-0.7-1.2-1.4-1.3-2.5l0,0C5.8,27.5,6.8,24.8,11.3,24.8"/>
</g>
<text transform="matrix(1 0 0 1 157.6992 36.0921)" class="st1 st2">ML Research</text>
</svg>
